<svg width="80" height="80" viewBox="0 0 80 80" fill="none" xmlns="http://www.w3.org/2000/svg">
<circle opacity="0.1" cx="40" cy="40" r="40" fill="white"/>
<g opacity="0.5">
<path d="M62.0973 35.1418C61.3074 35.1418 60.6766 35.7811 60.6766 36.571V56.603H26.624C25.8346 56.603 25.1948 57.2338 25.1948 58.0237C25.1948 58.8136 25.8346 59.4443 26.624 59.4443H62.3525C63.1424 59.4443 63.5179 58.7979 63.5179 58.0085V36.571C63.5179 35.7811 62.8871 35.1418 62.0973 35.1418Z" fill="white"/>
<path d="M59.2558 53.7212V32.2837C59.2558 31.4938 58.625 30.8545 57.8351 30.8545C57.0452 30.8545 56.4144 31.4938 56.4144 32.2837V52.3412H26.4799L23.6196 55.1826H58.0652C58.8551 55.1826 59.2558 54.5111 59.2558 53.7212Z" fill="white"/>
<path d="M42.344 38.7147C42.344 38.0338 42.209 37.3888 42.0125 36.7722L39.4207 39.3612C39.1541 40.814 38.0095 41.9567 36.5566 42.2233L33.9653 44.8123C34.5838 45.0107 35.2302 45.1461 35.9131 45.1461C39.4595 45.1461 42.344 42.2612 42.344 38.7147Z" fill="white"/>
<path d="M50.8634 23.6429C51.4217 23.0846 51.4203 22.1806 50.8619 21.6223C50.3036 21.064 49.3991 21.1634 48.8413 21.7222L43.8912 26.7689H18.0492C17.2597 26.7689 16.6356 27.206 16.6356 27.9959V49.4329C16.6356 50.2228 17.2597 50.9203 18.0492 50.9203H19.5764L16.6687 53.7967C16.1104 54.3555 16.1104 55.2453 16.6687 55.8032C17.2271 56.3634 18.132 56.3558 18.6913 55.797L50.8634 23.6429ZM32.4088 38.0405C32.684 36.6099 33.811 35.4833 35.2421 35.2101L32.4088 38.0405ZM19.4769 29.6102H23.7655C23.7655 31.978 21.8447 33.7127 19.4769 33.7127V29.6102ZM19.4769 36.5711C23.2654 36.5711 26.6239 33.3987 26.6239 29.6102H41.03L37.8396 32.7068C37.2282 32.5117 36.5899 32.3294 35.9136 32.3294C32.3672 32.3294 29.4823 35.1911 29.4823 38.7376C29.4823 39.4115 29.6172 40.038 29.8109 40.6479L25.7644 44.6855C24.5625 42.4252 22.3183 40.8582 19.4769 40.8582V36.5711ZM19.4769 48.079V43.7166C21.3712 43.7166 23.0817 45.0885 23.5888 46.8913L22.4367 48.079H19.4769Z" fill="white"/>
<path d="M52.1525 29.6101V33.7126C50.2583 33.7126 48.633 32.3696 48.1339 30.5554L45.9058 32.7323C47.1053 35.0035 49.7847 36.571 52.1525 36.571V40.8581C48.364 40.8581 45.2026 43.8169 45.2026 48.0789H30.7704L27.9097 50.9202H53.7773C54.5676 50.9202 54.9938 50.2227 54.9938 49.4328V27.9958C54.9938 27.2059 54.5676 26.7688 53.7777 26.7688H52.2249L49.3651 29.6101H52.1525ZM52.1525 48.0789H48.061C48.061 45.7111 49.7847 43.7165 52.1525 43.7165V48.0789Z" fill="white"/>
</g>
</svg>
