<svg width="144" height="144" viewBox="0 0 144 144" fill="none" xmlns="http://www.w3.org/2000/svg">
<circle cx="72" cy="72" r="72" fill="#DA4672"/>
<path d="M86.4022 63.0293H55.3236C54.4993 63.0293 53.7088 62.7018 53.126 62.119C52.5432 61.5361 52.2157 60.7456 52.2157 59.9214C52.2157 59.0971 52.5432 58.3066 53.126 57.7238C53.7088 57.141 54.4993 56.8135 55.3236 56.8135H70.8629V50.5978H55.3236C52.8508 50.5978 50.4793 51.5801 48.7308 53.3286C46.9823 55.0771 46 57.4486 46 59.9214V94.1079C46 96.5806 46.9823 98.9521 48.7308 100.701C50.4793 102.449 52.8508 103.431 55.3236 103.431H86.4022C88.875 103.431 91.2465 102.449 92.995 100.701C94.7435 98.9521 95.7258 96.5806 95.7258 94.1079V72.3528C95.7258 69.8801 94.7435 67.5086 92.995 65.7601C91.2465 64.0116 88.875 63.0293 86.4022 63.0293ZM83.2943 87.8921H77.0786V78.5686H83.2943V87.8921ZM83.2943 51.872V59.9214H89.5101V51.872L92.6179 54.9799L97 50.5978L86.4022 40L75.8044 50.5978L80.1865 54.9799L83.2943 51.872Z" fill="white"/>
</svg>
