<svg width="64" height="64" viewBox="0 0 64 64" fill="none" xmlns="http://www.w3.org/2000/svg">
<circle cx="32" cy="32" r="32" fill="#DA4672"/>
<path d="M38.2674 44.8806H26.4516C25.1646 44.8338 23.9657 44.2147 23.1823 43.1925C22.399 42.1702 22.1131 40.8515 22.4027 39.5966L22.7083 38.1451C23.0597 36.1802 24.7488 34.7362 26.7445 34.6946H37.9746C39.9703 34.7362 41.6593 36.1802 42.0108 38.1451L42.3164 39.5966C42.606 40.8515 42.32 42.1702 41.5367 43.1925C40.7534 44.2147 39.5545 44.8338 38.2674 44.8806Z" fill="white"/>
<path opacity="0.4" d="M32.9961 32.1483H31.7228C28.91 32.1483 26.6298 29.8681 26.6298 27.0553V23.6939C26.6264 22.5583 27.076 21.4681 27.8791 20.6651C28.6821 19.862 29.7722 19.4124 30.9079 19.4158H33.8109C34.9466 19.4124 36.0367 19.862 36.8398 20.6651C37.6428 21.4681 38.0925 22.5583 38.0891 23.6939V27.0553C38.0891 28.4061 37.5525 29.7015 36.5974 30.6566C35.6422 31.6118 34.3468 32.1483 32.9961 32.1483Z" fill="white"/>
</svg>
