<svg width="196" height="196" viewBox="0 0 196 196" fill="none" xmlns="http://www.w3.org/2000/svg">
<circle cx="98" cy="98" r="98" fill="#DA4672"/>
<path d="M77.2014 100.256C77.2014 95.2406 81.1072 91.1234 86.0016 90.8922L86.436 90.882H96.3985V103.579C96.3985 104.489 97.1056 105.208 98 105.208C98.8007 105.208 99.4791 104.604 99.5866 103.802L99.6015 103.579V90.882H109.543C114.493 90.882 118.56 94.8559 118.788 99.8551L118.799 100.299V110.604C118.799 115.641 114.893 119.758 109.998 119.99L109.564 120H86.4568C81.4865 120 77.4387 116.006 77.2115 111.025L77.2014 110.583V100.256Z" fill="white"/>
<path opacity="0.4" d="M90.8248 85.5987C90.2387 85.0315 90.1854 84.1377 90.6493 83.5111L90.804 83.3317L96.8564 77.2585C97.1684 76.9465 97.5636 76.7802 98.0003 76.7802C98.3331 76.7802 98.6659 76.8866 98.9348 77.089L99.1234 77.2585L105.176 83.3317C105.488 83.6437 105.654 84.0596 105.654 84.4548C105.654 84.8708 105.488 85.2868 105.176 85.5987C104.609 86.166 103.715 86.2175 103.088 85.7534L102.909 85.5987L99.6018 82.271V90.8816H96.3988V82.271L93.0919 85.5987C92.4679 86.2227 91.4488 86.2227 90.8248 85.5987Z" fill="white"/>
</svg>
